<svg xmlns="http://www.w3.org/2000/svg" xmlns:xlink="http://www.w3.org/1999/xlink" width="50" zoomAndPan="magnify" viewBox="0 0 37.5 37.499999" height="50" preserveAspectRatio="xMidYMid meet" version="1.0"><defs><clipPath id="43e075203a"><path d="M 8 2 L 37 2 L 37 31 L 8 31 Z M 8 2 " clip-rule="nonzero"/></clipPath><clipPath id="e92a30397e"><path d="M 26.867188 2.886719 L 36.195312 12.21875 L 17.679688 30.734375 L 8.351562 21.402344 Z M 26.867188 2.886719 " clip-rule="nonzero"/></clipPath><clipPath id="5866c30739"><path d="M 26.867188 2.886719 L 36.195312 12.21875 L 17.6875 30.726562 L 8.355469 21.394531 Z M 26.867188 2.886719 " clip-rule="nonzero"/></clipPath><clipPath id="0f42663164"><path d="M 0 2.890625 L 37.007812 2.890625 L 37.007812 33.976562 L 0 33.976562 Z M 0 2.890625 " clip-rule="nonzero"/></clipPath></defs><g clip-path="url(#43e075203a)"><g clip-path="url(#e92a30397e)"><g clip-path="url(#5866c30739)"><path fill="#34373c" d="M 26.867188 2.886719 L 36.195312 12.21875 L 17.679688 30.734375 L 8.351562 21.402344 Z M 26.867188 2.886719 " fill-opacity="1" fill-rule="nonzero"/></g></g></g><g clip-path="url(#0f42663164)"><path fill="#ffffff" d="M 22.90625 24.503906 L 25.757812 11.9375 L 18.753906 11.015625 L 25.726562 10.183594 L 26.382812 4.558594 L 28.070312 10.183594 L 35.019531 11.015625 L 28.28125 11.9375 Z M 29.734375 2.910156 L 7.273438 2.910156 L 0 11.128906 L 18.503906 34.085938 L 37.007812 11.128906 L 29.734375 2.910156 " fill-opacity="1" fill-rule="nonzero"/></g></svg>